<svg preserveAspectRatio="none" width="100%" height="100%" overflow="visible" style="display: block;" viewBox="0 0 21.0104 21" fill="none" xmlns="http://www.w3.org/2000/svg">
<path id="Icon" d="M9.00014 2H5.80014C4.11998 2 3.27991 2 2.63817 2.32698C2.07368 2.6146 1.61474 3.07354 1.32712 3.63803C1.00014 4.27976 1.00014 5.11984 1.00014 6.8V15.2C1.00014 16.8802 1.00014 17.7202 1.32712 18.362C1.61474 18.9265 2.07368 19.3854 2.63817 19.673C3.27991 20 4.11998 20 5.80014 20H14.2001C15.8803 20 16.7204 20 17.3621 19.673C17.9266 19.3854 18.3855 18.9265 18.6732 18.362C19.0001 17.7202 19.0001 16.8802 19.0001 15.2V12M10.0001 7H14.0001V11M13.5001 2.5V1M17.4395 3.56066L18.5001 2.5M18.5104 7.5H20.0104M1.00014 12.3471C1.65208 12.4478 2.32001 12.5 3.00014 12.5C7.3865 12.5 11.2655 10.3276 13.6198 7" stroke="var(--stroke-0, white)" stroke-width="2" stroke-linecap="round" stroke-linejoin="round"/>
</svg>
