<svg preserveAspectRatio="none" width="100%" height="100%" overflow="visible" style="display: block;" viewBox="0 0 20.608 19" fill="none" xmlns="http://www.w3.org/2000/svg">
<path id="Icon" d="M7.60796 12C7.60796 12 8.92046 13.5 11.108 13.5C13.2955 13.5 14.608 12 14.608 12M13.858 7H13.868M8.35796 7H8.36796M11.108 18C15.8024 18 19.608 14.1944 19.608 9.5C19.608 4.80558 15.8024 1 11.108 1C6.41354 1 2.60796 4.80558 2.60796 9.5C2.60796 10.45 2.7638 11.3636 3.05133 12.2166C3.15953 12.5376 3.21363 12.6981 3.22338 12.8214C3.23302 12.9432 3.22574 13.0286 3.19561 13.1469C3.1651 13.2668 3.09775 13.3915 2.96305 13.6408L1.32739 16.6684C1.09408 17.1002 0.977426 17.3161 1.00353 17.4828C1.02628 17.6279 1.1117 17.7557 1.23713 17.8322C1.38113 17.9201 1.62526 17.8948 2.1135 17.8444L7.23452 17.315C7.3896 17.299 7.46714 17.291 7.53782 17.2937C7.60733 17.2963 7.6564 17.3029 7.72419 17.3185C7.79311 17.3344 7.87978 17.3678 8.05311 17.4345C9.00116 17.7998 10.0312 18 11.108 18ZM14.358 7C14.358 7.27614 14.1341 7.5 13.858 7.5C13.5818 7.5 13.358 7.27614 13.358 7C13.358 6.72386 13.5818 6.5 13.858 6.5C14.1341 6.5 14.358 6.72386 14.358 7ZM8.85796 7C8.85796 7.27614 8.6341 7.5 8.35796 7.5C8.08181 7.5 7.85796 7.27614 7.85796 7C7.85796 6.72386 8.08181 6.5 8.35796 6.5C8.6341 6.5 8.85796 6.72386 8.85796 7Z" stroke="var(--stroke-0, white)" stroke-width="2" stroke-linecap="round" stroke-linejoin="round"/>
</svg>
