<svg preserveAspectRatio="none" width="100%" height="100%" overflow="visible" style="display: block;" viewBox="0 0 22.1052 22" fill="none" xmlns="http://www.w3.org/2000/svg">
<path id="Icon" d="M5.09438 10.2288C5.03222 9.82823 4.99998 9.41786 4.99998 9C4.99998 4.58172 8.60526 1 13.0526 1C17.5 1 21.1052 4.58172 21.1052 9C21.1052 9.99807 20.9213 10.9535 20.5852 11.8345C20.5154 12.0175 20.4805 12.109 20.4646 12.1804C20.4489 12.2512 20.4429 12.301 20.4411 12.3735C20.4394 12.4466 20.4493 12.5272 20.4692 12.6883L20.8718 15.9585C20.9153 16.3125 20.9371 16.4895 20.8782 16.6182C20.8267 16.731 20.735 16.8205 20.6211 16.8695C20.4911 16.9254 20.3146 16.8995 19.9617 16.8478L16.7765 16.3809C16.6102 16.3565 16.527 16.3443 16.4513 16.3448C16.3763 16.3452 16.3245 16.3507 16.2512 16.3661C16.177 16.3817 16.0824 16.4172 15.893 16.4881C15.0097 16.819 14.0524 17 13.0526 17C12.6344 17 12.2237 16.9683 11.8227 16.9073M6.63159 21C9.59649 21 12 18.5376 12 15.5C12 12.4624 9.59649 10 6.63159 10C3.6667 10 1.26317 12.4624 1.26317 15.5C1.26317 16.1106 1.36029 16.6979 1.53956 17.2467C1.61534 17.4787 1.65324 17.5947 1.66567 17.6739C1.67865 17.7567 1.68093 17.8031 1.67609 17.8867C1.67146 17.9668 1.65143 18.0573 1.61136 18.2383L1.00001 21L3.99482 20.591C4.15828 20.5687 4.24001 20.5575 4.31138 20.558C4.38653 20.5585 4.42642 20.5626 4.50012 20.5773C4.57012 20.5912 4.67417 20.6279 4.88229 20.7014C5.43061 20.8949 6.01912 21 6.63159 21Z" stroke="var(--stroke-0, white)" stroke-width="2" stroke-linecap="round" stroke-linejoin="round"/>
</svg>
