<svg width="32" height="32" viewBox="0 0 32 32" fill="none" xmlns="http://www.w3.org/2000/svg">
<path d="M17.6195 25.6893C17.6482 22.7522 16.9036 20.3637 15.9564 20.3544C15.0091 20.3452 14.218 22.7187 14.1893 25.6558C14.1605 28.5929 14.9052 30.9815 15.8524 30.9907C16.7996 31 17.5908 28.6265 17.6195 25.6893Z" fill="white"/>
<path d="M12.1262 25.0222C13.7384 22.5669 14.4034 20.155 13.6116 19.635C12.8197 19.1151 10.8709 20.684 9.2587 23.1393C7.64647 25.5946 6.98145 28.0064 7.77326 28.5264C8.56513 29.0464 10.5139 27.4775 12.1262 25.0222Z" fill="white"/>
<path d="M7.85877 21.4995C10.5425 20.3058 12.406 18.6364 12.021 17.7709C11.636 16.9053 9.14837 17.1714 6.46459 18.3652C3.78084 19.559 1.91734 21.2283 2.30233 22.0939C2.68731 22.9594 5.17502 22.6933 7.85877 21.4995Z" fill="white"/>
<path d="M11.6988 15.3437C11.8429 14.4074 9.60628 13.2862 6.70324 12.8394C3.80013 12.3925 1.32989 12.7893 1.18579 13.7256C1.04169 14.6618 3.27828 15.783 6.18137 16.2298C9.08443 16.6767 11.5547 16.2799 11.6988 15.3437Z" fill="white"/>
<path d="M12.7413 13.1133C13.3686 12.4036 12.0929 10.2513 9.89204 8.30616C7.69115 6.36102 5.39842 5.35957 4.77111 6.06937C4.14379 6.77918 5.41944 8.93144 7.62036 10.8766C9.82126 12.8217 12.114 13.8232 12.7413 13.1133Z" fill="white"/>
<path d="M14.8171 11.8098C15.7286 11.5518 15.8191 9.05154 15.0194 6.22527C14.2197 3.39897 12.8324 1.31689 11.9209 1.57482C11.0094 1.83275 10.9188 4.333 11.7186 7.15932C12.5183 9.98556 13.9056 12.0677 14.8171 11.8098Z" fill="white"/>
<path d="M20.4533 7.24735C21.3087 4.43736 21.2675 1.93581 20.3612 1.65996C19.455 1.38411 18.027 3.43842 17.1716 6.2484C16.3163 9.05835 16.3575 11.5599 17.2638 11.8358C18.17 12.1116 19.598 10.0573 20.4533 7.24735Z" fill="white"/>
<path d="M24.4811 11.0442C26.7196 9.14242 28.0371 7.01551 27.4237 6.29361C26.8104 5.57169 24.4985 6.52815 22.2601 8.42984C20.0216 10.3316 18.7041 12.4585 19.3174 13.1804C19.9307 13.9024 22.2426 12.9459 24.4811 11.0442Z" fill="white"/>
<path d="M25.8125 16.4172C28.7238 16.0277 30.9821 14.9508 30.8564 14.0118C30.7309 13.073 28.2689 12.6276 25.3576 13.017C22.4463 13.4065 20.188 14.4834 20.3136 15.4223C20.4392 16.3612 22.9011 16.8067 25.8125 16.4172Z" fill="white"/>
<path d="M29.5683 22.3623C29.9702 21.5045 28.14 19.7988 25.4803 18.5523C22.8207 17.3058 20.3387 16.9908 19.9367 17.8485C19.5347 18.7063 21.3649 20.4121 24.0246 21.6585C26.6843 22.9049 29.1663 23.2201 29.5683 22.3623Z" fill="white"/>
<path d="M23.9736 28.6911C24.7755 28.1869 24.1582 25.7624 22.5947 23.2758C21.0313 20.7892 19.1137 19.1822 18.3118 19.6864C17.5099 20.1906 18.1272 22.6152 19.6907 25.1018C21.2541 27.5883 23.1717 29.1954 23.9736 28.6911Z" fill="white"/>
</svg>
